<svg width="21" height="25" viewBox="0 0 21 25" fill="none" xmlns="http://www.w3.org/2000/svg">
<path d="M12.6667 1H3.33333C2.71449 1 2.121 1.24583 1.68342 1.68342C1.24583 2.121 1 2.71449 1 3.33333V22C1 22.6188 1.24583 23.2123 1.68342 23.6499C2.121 24.0875 2.71449 24.3333 3.33333 24.3333H17.3333C17.9522 24.3333 18.5457 24.0875 18.9832 23.6499C19.4208 23.2123 19.6667 22.6188 19.6667 22V8M12.6667 1L19.6667 8M12.6667 1L12.6667 8L19.6667 8M10.3333 19.6667V12.6667M6.83333 16.1667H13.8333" stroke="#48A4EB" stroke-width="1.16667" stroke-linecap="round" stroke-linejoin="round"/>
</svg>
